<?xml version="1.0" encoding="utf-8"?>
<!-- Generator: Adobe Illustrator 21.0.0, SVG Export Plug-In . SVG Version: 6.00 Build 0)  -->
<svg version="1.1" id="Layer_1" xmlns="http://www.w3.org/2000/svg" xmlns:xlink="http://www.w3.org/1999/xlink" x="0px" y="0px"
	 viewBox="0 0 443.8 130" style="enable-background:new 0 0 443.8 130;" xml:space="preserve">
<style type="text/css">
	.st0{fill:#86CF00;}
	.st1{fill:#0091D0;}
	.st2{fill:#0096D6;}
</style>
<title>Logo</title>
<g id="g2997">
	<g id="g3003">
		<g id="g3005">
			<path id="path3013" class="st0" d="M0.5,41.2l19.2,36.6c1.5,2.6,4.2,4.3,7.2,4.5l0,0l39.3-0.1c2.7,0,3.8-2,2.5-4.5l0,0L49.5,41.1
				c-1.5-2.6-4.2-4.3-7.2-4.5l0,0L3,36.6H2.8C0.3,36.7-0.7,38.7,0.5,41.2"/>
		</g>
	</g>
</g>
<g id="g3353">
	<g id="g3355">
		<g id="g3361">
			<g id="g3363">
				<path id="path3371" class="st0" d="M75.1,83.9l11.6,21.7c0.9,1.6,2.5,2.6,4.3,2.7l0,0l23.4-0.2c1.6,0,2.2-1.2,1.4-2.7l0,0
					l-11.6-21.7c-0.9-1.6-2.5-2.5-4.3-2.6l0,0l-23.4,0.2h-0.1C74.9,81.2,74.3,82.4,75.1,83.9"/>
			</g>
		</g>
	</g>
</g>
<g id="g3261">
	<g id="g3267">
		<g id="g3269">
			<path id="path3279" class="st1" d="M75.2,1.3l-23.4,30c-1.6,2.5-1.8,5.6-0.5,8.2l0,0L70.9,76c1.3,2.5,3.7,2.9,5.3,0.8l0,0
				l23.4-30c1.6-2.5,1.8-5.6,0.5-8.2l0,0L80.5,2.1c-0.5-1.2-1.7-2.1-3-2.1l0,0C76.6,0.1,75.8,0.6,75.2,1.3"/>
		</g>
	</g>
</g>
<g id="g3413">
	<g id="g3415">
		<g id="g3421">
			<g id="g3423">
				<path id="path3433" class="st1" d="M69.8,84.2l-13.9,17.9c-1,1.5-1.1,3.3-0.3,4.9l0,0l11.6,21.8c0.8,1.5,2.2,1.7,3.2,0.5l0,0
					l13.9-17.9c1-1.5,1.1-3.3,0.3-4.9l0,0L72.9,84.8c-0.3-0.7-1-1.2-1.8-1.3l0,0C70.6,83.5,70.1,83.8,69.8,84.2"/>
			</g>
		</g>
	</g>
</g>
<rect x="325.4" y="31.8" class="st2" width="7.8" height="58.8"/>
<path class="st0" d="M185.5,50.4c-11.2,0-20.3,9.1-20.3,20.3c0,0,0,0,0,0l0,0v37.4h7.8V70.7l0,0c0-6.9,5.6-12.5,12.5-12.5
	s12.5,5.6,12.5,12.5c0,6.9-5.6,12.5-12.5,12.5c-3.8,0-7.3-1.7-9.7-4.6v9.9c9.9,5.3,22.2,1.6,27.5-8.2c5.3-9.9,1.6-22.2-8.2-27.5
	C192.2,51.2,188.9,50.4,185.5,50.4z"/>
<path class="st0" d="M229.5,50.4c-11.2,0-20.3,9.1-20.3,20.3c0,0,0,0,0,0l0,0v37.4h7.8V70.7l0,0c0-6.9,5.6-12.5,12.5-12.5
	c6.9,0,12.5,5.6,12.5,12.5c0,6.9-5.6,12.5-12.5,12.5c-3.8,0-7.3-1.7-9.7-4.6v9.9c9.9,5.3,22.2,1.6,27.5-8.2
	c5.3-9.9,1.6-22.2-8.2-27.5C236.2,51.2,232.9,50.4,229.5,50.4z"/>
<path class="st0" d="M140.2,31.8c-11.2,0-20.3,9.1-20.3,20.3c0,0,0,0,0,0v38.5h7.8V52.1l0,0c-0.2-6.9,5.2-12.6,12.1-12.8
	c6.9-0.2,12.6,5.2,12.8,12.1c0,0.2,0,0.5,0,0.7l0,0v4.4h-20v7.8h20.1v26.3h7.8V52.1l0,0C160.5,40.9,151.4,31.8,140.2,31.8z"/>
<path class="st2" d="M299.3,52.1c0-6.9,5.6-12.5,12.5-12.5c0,0,0,0,0,0h9.8v-7.8h-9.8c-11.2,0-20.3,9.1-20.3,20.3v38.5h7.8V65.1
	h21.6v-7.8h-21.6V52.1C299.3,52.1,299.3,52.1,299.3,52.1z"/>
<path class="st2" d="M365.9,50.7v24.5l0,0c-0.2,5-4.4,9-9.4,8.8c-4.8-0.2-8.6-4-8.8-8.8l0,0V50.7h-7.8v24.6l0,0
	c0.1,7.7,5.5,14.4,13,16.2v16.7h7.8V91.4c7.5-1.8,12.9-8.5,13-16.2l0,0V50.7H365.9z"/>
<path class="st2" d="M409.8,73.8c-1.7,6.7-8.5,10.7-15.1,9s-10.7-8.5-9-15.1c1.7-6.7,8.5-10.7,15.1-9c1.9,0.5,3.7,1.4,5.2,2.8
	l-17.5,10.1l3.9,6.8l8.1-4.7l0,0l16.4-9.5c-3.6-10.6-15.2-16.3-25.8-12.7c-10.6,3.6-16.3,15.2-12.7,25.8
	c3.6,10.6,15.2,16.3,25.8,12.7c7.2-2.4,12.4-8.7,13.5-16.1L409.8,73.8L409.8,73.8z"/>
<path class="st2" d="M442.2,50.4c-4.5,0-8.9,1.5-12.5,4.3v-4.1H422v40h7.8V70.7l0,0c0-6.9,5.6-12.5,12.5-12.5h1.6v-7.8L442.2,50.4
	L442.2,50.4z"/>
<path class="st0" d="M279.4,72.1L260,63l0,0c-0.9-0.5-1.3-1.6-0.9-2.6c0.3-0.7,1-1.1,1.7-1.1l0,0H283v-7.8h-22.2
	c-5.4,0-9.7,4.4-9.7,9.7c0,3.8,2.2,7.2,5.6,8.8l0,0l19.4,9.1l0,0c1,0.4,1.4,1.6,0.9,2.6c-0.3,0.7-1,1.1-1.7,1.1h-22.7v7.8h22.7
	c5.4,0,9.7-4.3,9.7-9.7C285,77.1,282.9,73.7,279.4,72.1z"/>
</svg>
